<svg width="54" height="37" viewBox="0 0 54 37" fill="none" xmlns="http://www.w3.org/2000/svg">
<path d="M48.875 26.9827C46.256 26.9827 44.132 29.1067 44.132 31.7257C44.132 34.3447 46.256 36.4687 48.875 36.4687C51.494 36.4687 53.618 34.3447 53.618 31.7257C53.618 29.1067 51.494 26.9827 48.875 26.9827ZM39.11 0.756666L20.678 17.1727L2.255 0.756666C1.517 0.099666 0.356001 0.621667 0.356001 1.61167V35.3797C0.356001 35.9827 0.842 36.4687 1.445 36.4687H8.852C9.455 36.4687 9.941 35.9827 9.941 35.3797V20.4307L19.517 28.9537C20.192 29.5477 21.2 29.5477 21.875 28.9537L31.451 20.4307V35.3797C31.451 35.9827 31.937 36.4687 32.54 36.4687H39.947C40.55 36.4687 41.036 35.9827 41.036 35.3797V1.61167C41.018 0.630667 39.848 0.108666 39.11 0.756666Z" fill="white"/>
</svg>
